Coordinates
version=1
nRows=21
nColumns=22
inDegrees=yes

Units are S.I. units (second, meters, Newtons, ...)
If the header above contains a line with 'inDegrees', this indicates whether rotational values are in degrees (yes) or radians (no).

endheader
time	pelvis_tilt	pelvis_list	pelvis_rotation	pelvis_tx	pelvis_ty	pelvis_tz	hip_flexion_r	hip_adduction_r	hip_rotation_r	knee_angle_r	ankle_angle_r	subtalar_angle_r	hip_flexion_l	hip_adduction_l	hip_rotation_l	knee_angle_l	ankle_angle_l	subtalar_angle_l	lumbar_extension	lumbar_bending	lumbar_rotation
      0.01000000	      0.29113294	     -5.37904128	      0.15810834	      0.09645744	      0.93402482	      1.24255768	     -0.38584996	      8.36632592	     -9.68769669	    -14.74381650	     14.31872529	     -2.31139400	     23.10862953	     -7.02778346	      2.71690695	    -54.11875669	      4.21932470	     -6.68287215	    -14.44594279	      2.97127695	     -2.19699100
      0.02000000	      0.37823548	     -5.35866275	      0.19264224	      0.09783622	      0.93397256	      1.24233424	     -0.61348562	      8.33156997	     -9.75631371	    -14.67621641	     14.39397295	     -2.23105137	     23.85196728	     -6.93449630	      2.78569484	    -55.29272495	      3.55706924	     -7.03726033	    -14.62547102	      2.94650464	     -2.02088263
      0.03000000	      0.45606211	     -5.34302067	      0.21849347	      0.09949431	      0.93387837	      1.24210505	     -0.85521544	      8.29831059	     -9.85128055	    -14.59923154	     14.53202177	     -2.12402357	     24.70593709	     -6.85514646	      2.80343527	    -56.52639470	      2.96843465	     -7.39427607	    -14.80433323	      2.91972257	     -1.80736334
      0.04000000	      0.52628749	     -5.31707443	      0.23822630	      0.10144650	      0.93377152	      1.24185063	     -1.12224299	      8.25260397	     -9.94365381	    -14.49915788	     14.69008134	     -1.98459594	     25.60339434	     -6.77653888	      2.75132323	    -57.70081486	      2.51089032	     -7.65641752	    -14.96602174	      2.87647563	     -1.56000002
      0.05000000	      0.57912009	     -5.28497101	      0.23546554	      0.10362070	      0.93364971	      1.24159916	     -1.39700046	      8.19792438	    -10.02337967	    -14.37826501	     14.85690434	     -1.82244053	     26.50722373	     -6.70909812	      2.62510768	    -58.72463449	      2.22991855	     -7.81430115	    -15.10459225	      2.81779770	     -1.28398335
      0.06000000	      0.61562288	     -5.24060771	      0.21033304	      0.10601856	      0.93352870	      1.24134018	     -1.68321132	      8.12910251	    -10.07178866	    -14.23348503	     15.00471949	     -1.66723424	     27.37355860	     -6.64703047	      2.42043141	    -59.52352448	      2.13782270	     -7.85596842	    -15.21030266	      2.73636615	     -0.98551665
      0.07000000	      0.66357550	     -5.18446890	      0.17403813	      0.10860563	      0.93345884	      1.24104016	     -2.01028922	      8.04612928	    -10.09259625	    -14.06090817	     15.15406139	     -1.56886918	     28.14937897	     -6.58196643	      2.15750826	    -60.05263880	      2.20168474	     -7.80081752	    -15.31895937	      2.63818545	     -0.67922406
      0.08000000	      0.64867505	     -5.10747623	      0.10208254	      0.11135438	      0.93332833	      1.24072882	     -2.27773082	      7.93665069	    -10.04687554	    -13.89525631	     15.22535256	     -1.46553905	     28.90017254	     -6.51019328	      1.82523599	    -60.29470919	      2.41694763	     -7.64310581	    -15.33774896	      2.50965272	     -0.36488898
      0.09000000	      0.61803800	     -5.01953914	      0.02464908	      0.11424282	      0.93319184	      1.24037475	     -2.53237791	      7.81131023	     -9.99280113	    -13.74027656	     15.28367763	     -1.37880722	     29.58149410	     -6.43283809	      1.45461085	    -60.24860762	      2.67601237	     -7.39182533	    -15.32747454	      2.36463400	     -0.06537461
      0.10000000	      0.57054918	     -4.92874510	     -0.07710487	      0.11726230	      0.93302778	      1.24000313	     -2.75599165	      7.67529508	     -9.91810172	    -13.62920082	     15.36858183	     -1.27118234	     30.19790017	     -6.37461671	      1.02847500	    -59.93166563	      2.87482871	     -6.86070417	    -15.28687749	      2.21239322	      0.25442708
      0.11000000	      0.51773869	     -4.81146618	     -0.16478428	      0.12043011	      0.93285338	      1.23954442	     -2.98446573	      7.50926980	     -9.84878940	    -13.51382174	     15.44420142	     -1.21845295	     30.72556256	     -6.26468299	      0.61626132	    -59.33226743	      3.14752514	     -6.43494819	    -15.22940174	      2.03108013	      0.52554677
      0.12000000	      0.45065108	     -4.68605222	     -0.22836007	      0.12374669	      0.93263264	      1.23899835	     -3.20776227	      7.33608475	     -9.76641270	    -13.39663581	     15.51686891	     -1.17330187	     31.19320416	     -6.12560829	      0.23176918	    -58.48044557	      3.34536189	     -5.90105081	    -15.14116805	      1.84471470	      0.75477599
      0.13000000	      0.37008560	     -4.55820102	     -0.30690607	      0.12719646	      0.93233998	      1.23843113	     -3.39168297	      7.15079566	     -9.71265790	    -13.34381863	     15.62099386	     -1.14508014	     31.59848155	     -5.99763922	     -0.18180194	    -57.39904168	      3.56497011	     -5.61309056	    -15.03063439	      1.64813375	      1.00687439
      0.14000000	      0.29117378	     -4.42738056	     -0.34967092	      0.13080333	      0.93200257	      1.23774314	     -3.60064720	      6.96512709	     -9.65271238	    -13.26496401	     15.73878841	     -1.11244786	     31.93571627	     -5.83370148	     -0.53189927	    -56.09999856	      3.68611301	     -5.20561771	    -14.91155377	      1.45981252	      1.20675973
      0.15000000	      0.19047039	     -4.30961510	     -0.38438161	      0.13455039	      0.93155608	      1.23700700	     -3.76950431	      6.78708117	     -9.64058566	    -13.23437365	     15.86319219	     -1.08658253	     32.23621027	     -5.67981165	     -0.85826557	    -54.61313363	      3.82087376	     -5.01921437	    -14.76025363	      1.28225651	      1.41895130
      0.16000000	      0.09989846	     -4.19537787	     -0.39222787	      0.13846130	      0.93105288	      1.23620110	     -3.96320109	      6.61385571	     -9.64158107	    -13.19853382	     16.03002644	     -1.04217448	     32.46657146	     -5.51446889	     -1.13227173	    -52.94915885	      3.90011598	     -4.84589750	    -14.61175898	      1.10777107	      1.60519777
      0.17000000	      0.01089895	     -4.09739012	     -0.37686259	      0.14252988	      0.93046918	      1.23532027	     -4.16516302	      6.45491773	     -9.67524016	    -13.16840118	     16.22998968	     -0.96999874	     32.64008421	     -5.35512219	     -1.35551852	    -51.12751982	      3.96286342	     -4.73765352	    -14.45949895	      0.95260647	      1.77876386
      0.18000000	     -0.07077516	     -4.01393672	     -0.34581075	      0.14676373	      0.92980673	      1.23436620	     -4.38186078	      6.30620150	     -9.73981454	    -13.14602152	     16.47485070	     -0.85692187	     32.75180055	     -5.20591643	     -1.53783106	    -49.16758359	      4.01240532	     -4.69635282	    -14.30865656	      0.81493845	      1.94374188
      0.19000000	     -0.13993830	     -3.95065277	     -0.30063748	      0.15115314	      0.92906708	      1.23335280	     -4.62058203	      6.17504946	     -9.82499661	    -13.12690621	     16.75683620	     -0.69835368	     32.80123830	     -5.07976721	     -1.68887751	    -47.09009955	      4.04868250	     -4.71958800	    -14.16825561	      0.69825462	      2.10384053
      0.20000000	     -0.20774129	     -3.91146549	     -0.24845721	      0.15570014	      0.92822292	      1.23230895	     -4.86929895	      6.06793000	     -9.91850181	    -13.11331027	     17.05822420	     -0.52664633	     32.80831018	     -4.99373119	     -1.83256303	    -44.92401408	      4.08028719	     -4.79245267	    -14.02385634	      0.60155062	      2.26274404
      0.21000000	     -0.26823349	     -3.89932107	     -0.19538616	      0.16038919	      0.92728263	      1.23122957	     -5.13656456	      5.98825358	     -9.99485941	    -13.10012999	     17.36752072	     -0.35041535	     32.77152927	     -4.95582670	     -1.98682379	    -42.69165326	      4.10537751	     -4.90236831	    -13.88619805	      0.53227343	      2.42326021
